<?xml version="1.0" standalone="no"?>
<!DOCTYPE svg PUBLIC "-//W3C//DTD SVG 20010904//EN"
 "http://www.w3.org/TR/2001/REC-SVG-20010904/DTD/svg10.dtd">
<svg version="1.0" xmlns="http://www.w3.org/2000/svg"
 width="200.000000pt" height="200.000000pt" viewBox="0 0 200.000000 200.000000"
 preserveAspectRatio="xMidYMid meet">

<g transform="translate(0.000000,200.000000) scale(0.100000,-0.100000)"
fill="#ffff" stroke="none">
<path d="M1635 1552 c-16 -10 -207 -200 -424 -421 l-395 -402 -220 220 c-182
180 -227 221 -256 226 -91 17 -173 -69 -155 -162 5 -29 52 -82 272 -307 146
-149 279 -279 296 -288 40 -23 84 -23 124 -1 33 19 920 920 940 956 7 12 12
40 13 62 0 102 -111 168 -195 117z"/>
</g>
</svg>
